Coordinates
version=1
nRows=42
nColumns=38
inDegrees=no

Units are S.I. units (second, meters, Newtons, ...)
If the header above contains a line with 'inDegrees', this indicates whether rotational values are in degrees (yes) or radians (no).

endheader
time	pelvis_tilt	pelvis_list	pelvis_rotation	pelvis_tx	pelvis_ty	pelvis_tz	hip_flexion_r	hip_adduction_r	hip_rotation_r	knee_angle_r	ankle_angle_r	subtalar_angle_r	mtp_angle_r	hip_flexion_l	hip_adduction_l	hip_rotation_l	knee_angle_l	ankle_angle_l	subtalar_angle_l	mtp_angle_l	lumbar_extension	lumbar_bending	lumbar_rotation	arm_flex_r	arm_add_r	arm_rot_r	elbow_flex_r	pro_sup_r	wrist_flex_r	wrist_dev_r	arm_flex_l	arm_add_l	arm_rot_l	elbow_flex_l	pro_sup_l	wrist_flex_l	wrist_dev_l
5	1.58769	1.47274	0.131544	0.686778	1.771	0.921107	-0.0918829	0.102612	0.0498206	0.627541	-0.195083	0	0	0.38991	-0.0355801	0.0921547	0.399289	-0.386266	0	0	-0.176532	0.166583	0.119246	0.182137	-0.105892	-0.526389	1.98059	1.5708	0	0	0.613972	-0.262426	0.492357	1.52262	1.5708	0	0
5.01	1.59368	1.47391	0.127579	0.684568	1.77654	0.921729	-0.0858654	0.0973579	0.0490288	0.64999	-0.21149	0	0	0.386026	-0.0335148	0.083335	0.407615	-0.378413	0	0	-0.178827	0.167622	0.116055	0.178071	-0.107086	-0.529558	1.9854	1.5708	0	0	0.609031	-0.26258	0.492076	1.52993	1.5708	0	0
5.02	1.73535	1.4762	-0.0117603	0.682467	1.78137	0.922912	-0.0923659	0.0906192	0.0453372	0.673169	-0.233159	0	0	0.369209	-0.0319404	0.0724815	0.417269	-0.366658	0	0	-0.183561	0.153233	0.137888	0.15818	-0.114806	-0.568602	1.97909	1.5708	0	0	0.644615	-0.242404	0.542476	1.49099	1.5708	0	0
5.03	1.74372	1.47807	-0.0185217	0.680342	1.78662	0.923516	-0.084229	0.0832831	0.0417701	0.697649	-0.245888	0	0	0.364091	-0.0294014	0.0665575	0.422558	-0.362312	0	0	-0.186961	0.153083	0.134952	0.154538	-0.116012	-0.571694	1.98438	1.5708	0	0	0.640495	-0.243078	0.542237	1.49916	1.5708	0	0
5.04	1.74887	1.4801	-0.0218694	0.678347	1.79173	0.924052	-0.0745453	0.075673	0.0368098	0.72351	-0.262396	0	0	0.359879	-0.0271058	0.0601425	0.428571	-0.357041	0	0	-0.189995	0.152842	0.130378	0.152043	-0.117158	-0.572336	1.98847	1.5708	0	0	0.63517	-0.244605	0.539797	1.50815	1.5708	0	0
5.05	1.74568	1.48208	-0.0164753	0.676465	1.79668	0.924514	-0.0630781	0.0681276	0.0312171	0.750151	-0.280704	0	0	0.356751	-0.0250739	0.0542384	0.434591	-0.351729	0	0	-0.192789	0.152897	0.125175	0.149704	-0.118187	-0.572242	1.99316	1.5708	0	0	0.629306	-0.24662	0.53637	1.51804	1.5708	0	0
5.06	1.9137	1.48253	-0.18143	0.674755	1.80072	0.925525	-0.0661858	0.0602	0.0235955	0.778055	-0.309037	0	0	0.339396	-0.0239672	0.0449511	0.443516	-0.34141	0	0	-0.19496	0.13567	0.147219	0.130041	-0.12563	-0.61082	1.97837	1.5708	0	0	0.671016	-0.224632	0.59381	1.46838	1.5708	0	0
5.07	1.93522	1.48392	-0.200513	0.672941	1.80519	0.925896	-0.0543124	0.0524238	0.0174015	0.807542	-0.32885	0	0	0.334143	-0.021794	0.0405193	0.447769	-0.336692	0	0	-0.193945	0.130149	0.149699	0.123638	-0.126274	-0.62324	1.97487	1.5708	0	0	0.678989	-0.218759	0.608451	1.45911	1.5708	0	0
5.08	1.94434	1.48568	-0.207713	0.671121	1.80945	0.926171	-0.0398731	0.0442168	0.0119601	0.838109	-0.353126	0	0	0.329777	-0.0189998	0.0372453	0.450942	-0.331772	0	0	-0.192316	0.12494	0.151577	0.118647	-0.127219	-0.634154	1.97117	1.5708	0	0	0.686054	-0.213371	0.621335	1.45102	1.5708	0	0
5.09	1.9541	1.48748	-0.215832	0.669331	1.81351	0.926436	-0.0245299	0.0358318	0.00656775	0.868901	-0.377958	0	0	0.325054	-0.0159711	0.0346595	0.453316	-0.327049	0	0	-0.191123	0.120022	0.152834	0.114986	-0.1286	-0.643445	1.96692	1.5708	0	0	0.692851	-0.208391	0.632968	1.44335	1.5708	0	0
5.1	1.96867	1.48921	-0.228674	0.667695	1.81742	0.92673	-0.00908637	0.0276494	0.000243275	0.899306	-0.397976	0	0	0.319562	-0.013052	0.032451	0.45467	-0.322624	0	0	-0.19055	0.115308	0.152753	0.112926	-0.129925	-0.650566	1.96162	1.5708	0	0	0.699138	-0.20442	0.643029	1.43632	1.5708	0	0
5.11	1.97964	1.49079	-0.238139	0.666223	1.82119	0.927001	0.00730808	0.0199023	-0.00652218	0.930074	-0.415355	0	0	0.314024	-0.0103965	0.030497	0.454979	-0.318123	0	0	-0.189676	0.11098	0.152163	0.111818	-0.130868	-0.656425	1.9557	1.5708	0	0	0.70536	-0.20125	0.652612	1.42925	1.5708	0	0
5.12	1.98258	1.49221	-0.240034	0.664879	1.82478	0.927247	0.0247445	0.0130841	-0.0120241	0.960914	-0.430189	0	0	0.308905	-0.00810856	0.0289446	0.45443	-0.313932	0	0	-0.188513	0.107438	0.151112	0.111882	-0.132004	-0.660371	1.94952	1.5708	0	0	0.710822	-0.19883	0.660872	1.42287	1.5708	0	0
5.13	1.98268	1.49321	-0.239541	0.663637	1.82819	0.927563	0.0423805	0.00776398	-0.0150759	0.99072	-0.442097	0	0	0.303869	-0.00653438	0.0277228	0.453211	-0.310832	0	0	-0.187937	0.104844	0.149703	0.113353	-0.133397	-0.662842	1.94325	1.5708	0	0	0.715437	-0.196822	0.667121	1.41754	1.5708	0	0
5.14	1.97599	1.49414	-0.232508	0.662496	1.83147	0.927904	0.0606027	0.00268182	-0.0184458	1.01943	-0.454336	0	0	0.299467	-0.00531491	0.0268605	0.451683	-0.308004	0	0	-0.186767	0.102722	0.147842	0.115626	-0.134561	-0.664284	1.93619	1.5708	0	0	0.719771	-0.195558	0.672905	1.41236	1.5708	0	0
5.15	1.96979	1.49456	-0.226295	0.661381	1.83454	0.928282	0.07866	-0.00208098	-0.0217678	1.04658	-0.466871	0	0	0.295108	-0.00447267	0.0269986	0.449925	-0.3052	0	0	-0.186088	0.101569	0.145661	0.11886	-0.136236	-0.66434	1.92882	1.5708	0	0	0.723459	-0.194544	0.677471	1.40749	1.5708	0	0
5.16	1.9538	1.49448	-0.210389	0.660389	1.83752	0.928666	0.0968736	-0.0056971	-0.0246521	1.07132	-0.476256	0	0	0.291558	-0.00433495	0.028041	0.448057	-0.30225	0	0	-0.185157	0.101509	0.1435	0.122119	-0.138247	-0.663575	1.92185	1.5708	0	0	0.726344	-0.193654	0.681176	1.40308	1.5708	0	0
5.17	1.93571	1.49398	-0.192668	0.659424	1.84037	0.929072	0.114679	-0.0083542	-0.0270259	1.09364	-0.476814	0	0	0.288202	-0.00460036	0.0294232	0.445968	-0.300318	0	0	-0.184333	0.102396	0.141341	0.125752	-0.140568	-0.662072	1.91494	1.5708	0	0	0.728573	-0.192837	0.683738	1.39885	1.5708	0	0
5.18	1.91294	1.49312	-0.170601	0.658452	1.84306	0.929504	0.13215	-0.0102064	-0.0285029	1.11264	-0.468054	0	0	0.2851	-0.00515354	0.0314129	0.44337	-0.299128	0	0	-0.183407	0.104132	0.1397	0.129693	-0.143036	-0.660599	1.90831	1.5708	0	0	0.730598	-0.191847	0.685649	1.3947	1.5708	0	0
5.19	1.60762	1.48653	0.123712	0.657126	1.84421	0.92969	0.154895	0.0183357	0.030388	1.08184	-0.440866	0	0	0.305769	-0.00986069	0.0414771	0.435317	-0.302949	0	0	-0.161987	0.116989	0.145444	0.134018	-0.151105	-0.654424	1.89992	1.5708	0	0	0.724143	-0.188022	0.680472	1.3895	1.5708	0	0
5.2	1.5725	1.4845	0.15885	0.656411	1.84693	0.930073	0.172773	0.0174953	0.0274695	1.09395	-0.426486	0	0	0.304127	-0.0109636	0.0442597	0.43211	-0.301784	0	0	-0.158869	0.119032	0.143032	0.13703	-0.152862	-0.652281	1.89346	1.5708	0	0	0.724829	-0.187226	0.681186	1.38558	1.5708	0	0
5.21	1.55278	1.4826	0.178764	0.655649	1.84963	0.930558	0.188013	0.0170038	0.0255485	1.10131	-0.412658	0	0	0.300543	-0.0119655	0.0471755	0.427622	-0.300456	0	0	-0.157775	0.1215	0.141386	0.139493	-0.155288	-0.650643	1.88886	1.5708	0	0	0.725961	-0.185919	0.681883	1.38197	1.5708	0	0
5.22	1.54179	1.48069	0.190149	0.654906	1.85225	0.931124	0.20153	0.0168104	0.0244947	1.10401	-0.401825	0	0	0.296149	-0.0131241	0.0498013	0.422943	-0.299131	0	0	-0.15821	0.124275	0.139923	0.142553	-0.156527	-0.650032	1.88545	1.5708	0	0	0.726982	-0.184485	0.681748	1.37921	1.5708	0	0
5.23	1.53764	1.47883	0.194938	0.654156	1.85476	0.931739	0.213429	0.016953	0.0241561	1.10242	-0.390537	0	0	0.290989	-0.0141571	0.0530736	0.417591	-0.297905	0	0	-0.158914	0.127081	0.138212	0.146183	-0.157918	-0.649124	1.88113	1.5708	0	0	0.728317	-0.182533	0.681549	1.37525	1.5708	0	0
5.24	1.54264	1.47707	0.190988	0.653412	1.85716	0.932405	0.223175	0.0173791	0.0239954	1.09642	-0.377423	0	0	0.284862	-0.0151738	0.0569661	0.41182	-0.296405	0	0	-0.160178	0.129816	0.13623	0.150348	-0.15952	-0.647991	1.87605	1.5708	0	0	0.730369	-0.180266	0.6816	1.37025	1.5708	0	0
5.25	1.80053	1.48139	-0.0542588	0.653062	1.8611	0.933599	0.224901	-0.00980307	-0.0323346	1.13328	-0.375311	0	0	0.253571	-0.0135818	0.0542892	0.409756	-0.290939	0	0	-0.182285	0.123037	0.125871	0.153789	-0.155563	-0.650667	1.87217	1.5708	0	0	0.740348	-0.180865	0.688449	1.36571	1.5708	0	0
5.26	1.81853	1.47936	-0.0708232	0.652473	1.86342	0.934357	0.230937	-0.00879953	-0.0325602	1.12059	-0.366068	0	0	0.245887	-0.0153367	0.056931	0.403822	-0.290329	0	0	-0.185688	0.125713	0.124239	0.157887	-0.157115	-0.649569	1.86834	1.5708	0	0	0.743741	-0.178911	0.689387	1.36087	1.5708	0	0
5.27	1.81173	1.47764	-0.0629356	0.651893	1.86562	0.934878	0.238766	-0.00780702	-0.0323329	1.10527	-0.353429	0	0	0.241009	-0.0166789	0.0603199	0.398229	-0.290115	0	0	-0.186646	0.12846	0.12264	0.161849	-0.15889	-0.648388	1.86436	1.5708	0	0	0.746412	-0.176954	0.689802	1.35621	1.5708	0	0
5.28	1.7925	1.47606	-0.0428026	0.65138	1.86784	0.93528	0.246848	-0.00680075	-0.0317457	1.08684	-0.339779	0	0	0.237768	-0.0180469	0.063249	0.393344	-0.289724	0	0	-0.186248	0.131185	0.121348	0.165031	-0.160748	-0.647314	1.86094	1.5708	0	0	0.748793	-0.175046	0.690271	1.35175	1.5708	0	0
5.29	1.76385	1.4745	-0.0132024	0.650929	1.87009	0.935593	0.25483	-0.00587153	-0.0310157	1.06524	-0.326851	0	0	0.235997	-0.0194652	0.0658065	0.389506	-0.2887	0	0	-0.1848	0.133945	0.120078	0.167422	-0.162563	-0.646105	1.85826	1.5708	0	0	0.750594	-0.173432	0.690407	1.348	1.5708	0	0
5.3	1.7308	1.473	0.0207317	0.650509	1.87234	0.935849	0.26239	-0.00510414	-0.0301622	1.04128	-0.315047	0	0	0.235003	-0.0208058	0.0681288	0.386007	-0.28797	0	0	-0.182389	0.136552	0.11834	0.170352	-0.163029	-0.645012	1.8551	1.5708	0	0	0.751708	-0.172361	0.690205	1.34453	1.5708	0	0
5.31	1.69944	1.47148	0.0527645	0.650119	1.87454	0.936076	0.268768	-0.00420255	-0.0286649	1.01457	-0.303779	0	0	0.234099	-0.0220665	0.0705609	0.382723	-0.287149	0	0	-0.180096	0.139045	0.117088	0.172882	-0.16372	-0.644039	1.85226	1.5708	0	0	0.752941	-0.171069	0.690275	1.34096	1.5708	0	0
5.32	1.66918	1.47004	0.0836337	0.649817	1.87673	0.936275	0.273942	-0.00316288	-0.0272525	0.985042	-0.29241	0	0	0.233173	-0.0230641	0.0736066	0.379367	-0.285993	0	0	-0.177478	0.140965	0.116296	0.174965	-0.164136	-0.643714	1.84929	1.5708	0	0	0.754719	-0.169658	0.691362	1.33673	1.5708	0	0
5.33	1.63375	1.46873	0.119545	0.649599	1.87898	0.936444	0.278624	-0.00250115	-0.0265909	0.953096	-0.280824	0	0	0.232742	-0.0238468	0.0771658	0.375689	-0.285158	0	0	-0.174597	0.142793	0.115745	0.176265	-0.164293	-0.643569	1.84772	1.5708	0	0	0.755885	-0.168625	0.69192	1.33365	1.5708	0	0
5.34	1.5964	1.46744	0.157193	0.649484	1.88124	0.936579	0.282686	-0.0019784	-0.0265993	0.918972	-0.269246	0	0	0.232713	-0.0246402	0.0805766	0.37231	-0.284492	0	0	-0.171387	0.144272	0.1154	0.177243	-0.164378	-0.643348	1.84641	1.5708	0	0	0.756879	-0.167673	0.692337	1.33069	1.5708	0	0
5.35	1.55675	1.46606	0.196879	0.649457	1.88349	0.936644	0.286441	-0.00151122	-0.0274781	0.883195	-0.258311	0	0	0.233232	-0.0254136	0.0837268	0.369432	-0.283477	0	0	-0.167674	0.14529	0.11536	0.177926	-0.164348	-0.643139	1.84516	1.5708	0	0	0.757824	-0.166589	0.692915	1.32746	1.5708	0	0
5.36	1.51871	1.46472	0.234389	0.649397	1.8857	0.936674	0.289541	-0.00129263	-0.0290641	0.845877	-0.248768	0	0	0.233764	-0.0259803	0.086331	0.366897	-0.28235	0	0	-0.163794	0.146292	0.116023	0.178308	-0.164852	-0.642586	1.84401	1.5708	0	0	0.759156	-0.165455	0.693917	1.32382	1.5708	0	0
5.37	1.47939	1.46334	0.272961	0.649417	1.88793	0.936674	0.292008	-0.000857974	-0.0304664	0.806509	-0.241488	0	0	0.234642	-0.0264123	0.0887891	0.364654	-0.281116	0	0	-0.159506	0.147248	0.117132	0.178051	-0.165181	-0.642236	1.84313	1.5708	0	0	0.760555	-0.164406	0.695207	1.31992	1.5708	0	0
5.38	1.3482	1.45197	0.396528	0.649322	1.88929	0.936852	0.28976	0.00738618	-0.0293523	0.714795	-0.248229	0	0	0.249422	-0.0319954	0.0949282	0.359656	-0.283803	0	0	-0.143859	0.157706	0.123612	0.178543	-0.168213	-0.639296	1.84141	1.5708	0	0	0.756593	-0.161497	0.691927	1.31517	1.5708	0	0
5.39	1.39007	1.45949	0.360511	0.649727	1.89254	0.936528	0.296351	0.000928532	-0.0280784	0.725325	-0.238577	0	0	0.238829	-0.0276479	0.0932953	0.361465	-0.279538	0	0	-0.14892	0.149162	0.119891	0.177315	-0.163817	-0.642954	1.84234	1.5708	0	0	0.76169	-0.162395	0.69687	1.31301	1.5708	0	0
5.4	1.36813	1.45808	0.381514	0.649964	1.89477	0.936634	0.294523	0.00284221	-0.0247789	0.686075	-0.233046	0	0	0.238769	-0.0285572	0.0948194	0.360685	-0.277245	0	0	-0.146838	0.150128	0.122567	0.176981	-0.163746	-0.644336	1.84335	1.5708	0	0	0.763955	-0.161145	0.699049	1.30941	1.5708	0	0
5.41	1.34761	1.45642	0.401023	0.650306	1.897	0.936759	0.291932	0.00557863	-0.0198921	0.647784	-0.229888	0	0	0.239244	-0.0300121	0.0966321	0.360929	-0.275501	0	0	-0.144489	0.151288	0.125496	0.176278	-0.163509	-0.645454	1.84435	1.5708	0	0	0.765903	-0.159699	0.700875	1.30543	1.5708	0	0
